<svg xmlns="http://www.w3.org/2000/svg" xmlns:xlink="http://www.w3.org/1999/xlink" width="29" height="13" viewBox="0 0 29 13"><defs><path id="tlpca" d="M360 198.84c0 1.87-1.65 3.4-3.68 3.4l-10.2-.01c-.23-.02-.4-.2-.4-.4v-10.78c0-.2.07-.3.35-.4.71-.25 1.52-.4 2.35-.4 3.4 0 6.18 2.4 6.47 5.46.44-.17.92-.26 1.43-.26 2.03 0 3.68 1.52 3.68 3.39zm-17.85-2.6l.44-5.99h.9l.44 5.99-.44 6h-.9zm-2.23 6h-.9l-.44-4.36.44-4.2h.9l.44 4.27zM335 198.8l.44-3.42h.9l.44 3.42-.44 3.42h-.9zm-3.57 0l.44-1.71h.9l.44 1.71-.45 1.71h-.89z"/><linearGradient id="tlpcb" x1="346" x2="345.44" y1="202.23" y2="190.25" gradientUnits="userSpaceOnUse"><stop offset="0" stop-color="#f7550f"/><stop offset=".01" stop-color="#f7550f"/><stop offset="1" stop-color="#f58e12"/></linearGradient></defs><g><g transform="translate(-331 -190)"><use fill="url(#tlpcb)" xlink:href="#tlpca"/></g></g></svg>