<svg xmlns="http://www.w3.org/2000/svg" xmlns:xlink="http://www.w3.org/1999/xlink" width="29" height="13" viewBox="0 0 29 13"><defs><path id="yqqda" d="M360 92.28c0 1.87-1.65 3.4-3.68 3.4l-10.2-.01c-.23-.02-.4-.2-.4-.4V84.49c0-.2.07-.3.35-.4.71-.25 1.52-.4 2.35-.4 3.4 0 6.18 2.4 6.47 5.46.44-.17.92-.27 1.43-.27 2.03 0 3.68 1.52 3.68 3.4zm-17.85-2.6l.44-6h.9l.44 6-.44 6h-.9zm-2.23 6h-.9l-.44-4.36.44-4.2h.9l.44 4.27zM335 92.24l.44-3.43h.9l.44 3.43-.44 3.42h-.9zm-3.57 0l.44-1.71h.9l.44 1.7-.45 1.72h-.89z"/></defs><g><g transform="translate(-331 -83)"><use fill="#d1d6dc" xlink:href="#yqqda"/></g></g></svg>