<svg xmlns="http://www.w3.org/2000/svg" xmlns:xlink="http://www.w3.org/1999/xlink" width="29" height="13" viewBox="0 0 29 13"><defs><path id="r3t3a" d="M360 146.9c0 1.88-1.65 3.4-3.68 3.4h-10.2c-.23-.03-.4-.2-.4-.41v-10.77c0-.2.07-.3.35-.4.71-.26 1.52-.4 2.35-.4 3.4 0 6.18 2.4 6.47 5.45.44-.17.92-.26 1.43-.26 2.03 0 3.68 1.52 3.68 3.4zm-17.85-2.6l.44-5.99h.9l.44 5.99-.44 6h-.9zm-2.23 6h-.9l-.44-4.36.44-4.2h.9l.44 4.28zm-4.91-3.43l.44-3.42h.9l.44 3.42-.44 3.43h-.9zm-3.57 0l.44-1.7h.9l.44 1.7-.45 1.71h-.89z"/></defs><g><g transform="translate(-331 -138)"><use fill="#2fdafd" xlink:href="#r3t3a"/></g></g></svg>