<svg xmlns="http://www.w3.org/2000/svg" xmlns:xlink="http://www.w3.org/1999/xlink" width="18" height="14" viewBox="0 0 18 14"><defs><path id="xl1aa" d="M411.42 146l.01.07v5.23c0 .2-.07.36-.21.5a.7.7 0 0 1-.5.2h-4.3v-4.19h-2.85V152h-4.29a.7.7 0 0 1-.5-.2.66.66 0 0 1-.21-.5v-5.23-.04-.03l6.43-5.17zm2.58-.94c0 .1-.02.18-.08.26l-.7.8a.4.4 0 0 1-.23.12h-.03a.35.35 0 0 1-.23-.07l-7.73-6.3-7.73 6.3a.42.42 0 0 1-.27.07.4.4 0 0 1-.23-.12l-.7-.8a.35.35 0 0 1-.07-.26c0-.1.05-.18.12-.24l8.03-6.53c.24-.19.52-.28.85-.28.33 0 .6.1.85.28l2.72 2.23v-2.13a.34.34 0 0 1 .36-.35h2.14c.1 0 .2.03.26.1.07.07.1.15.1.25v4.45l2.45 1.98c.07.06.11.14.12.24z"/></defs><g><g transform="translate(-396 -138)"><use fill="#2fdafd" xlink:href="#xl1aa"/></g></g></svg>