<svg xmlns="http://www.w3.org/2000/svg" xmlns:xlink="http://www.w3.org/1999/xlink" width="19" height="19" viewBox="0 0 19 19"><defs><path id="84iza" d="M304.71 86.5v7.44a5.5 5.5 0 0 1-5.49 5.5h-7.44a5.5 5.5 0 0 1-5.5-5.5V86.5a5.5 5.5 0 0 1 5.5-5.49h7.44a5.5 5.5 0 0 1 5.5 5.5zm-1.85 7.44V86.5c0-2-1.63-3.64-3.64-3.64h-7.44c-2.01 0-3.64 1.63-3.64 3.64v7.45c0 2.01 1.63 3.64 3.64 3.64h7.44c2.01 0 3.64-1.63 3.64-3.64zm-2.6-3.72a4.77 4.77 0 1 1-9.54-.01 4.77 4.77 0 0 1 9.55 0zm-1.85 0a2.91 2.91 0 1 0-5.82 0 2.91 2.91 0 0 0 5.82 0zm1.87-5.88a1.14 1.14 0 1 1 0 2.29 1.14 1.14 0 0 1 0-2.29z"/></defs><g><g transform="translate(-286 -81)"><use fill="#d1d6dc" xlink:href="#84iza"/></g></g></svg>