<svg xmlns="http://www.w3.org/2000/svg" xmlns:xlink="http://www.w3.org/1999/xlink" width="19" height="19" viewBox="0 0 19 19"><defs><path id="izbra" d="M304.71 141.12v7.45a5.5 5.5 0 0 1-5.49 5.5h-7.44a5.5 5.5 0 0 1-5.5-5.5v-7.45a5.5 5.5 0 0 1 5.5-5.5h7.44a5.5 5.5 0 0 1 5.5 5.5zm-1.85 7.45v-7.45c0-2.01-1.63-3.64-3.64-3.64h-7.44c-2.01 0-3.64 1.63-3.64 3.64v7.45c0 2 1.63 3.64 3.64 3.64h7.44c2.01 0 3.64-1.63 3.64-3.64zm-2.6-3.73a4.77 4.77 0 1 1-9.54 0 4.77 4.77 0 0 1 9.55 0zm-1.85 0a2.91 2.91 0 1 0-5.82 0 2.91 2.91 0 0 0 5.82 0zm1.87-5.87a1.14 1.14 0 1 1 0 2.28 1.14 1.14 0 0 1 0-2.28z"/></defs><g><g transform="translate(-286 -135)"><use fill="#2fdafd" xlink:href="#izbra"/></g></g></svg>