<svg xmlns="http://www.w3.org/2000/svg" xmlns:xlink="http://www.w3.org/1999/xlink" width="27" height="16" viewBox="0 0 27 16"><defs><path id="zpx6a" d="M254 197.79c.88.84 1.82 1.63 2.61 2.56.36.42.69.84.94 1.32.36.68.04 1.43-.59 1.47h-3.9c-1 .08-1.8-.31-2.47-.98-.54-.54-1.04-1.1-1.56-1.66a3.66 3.66 0 0 0-.7-.6c-.53-.34-.99-.24-1.3.3-.3.55-.37 1.16-.4 1.77-.05.9-.32 1.13-1.24 1.17-1.97.1-3.84-.2-5.57-1.17a12.2 12.2 0 0 1-3.75-3.42 45.79 45.79 0 0 1-4.94-8.58c-.3-.67-.08-1.04.69-1.05 1.27-.02 2.54-.02 3.8 0 .52 0 .87.3 1.06.77a22.87 22.87 0 0 0 2.59 4.67c.28.39.57.77.97 1.05.45.3.8.2 1.01-.3.14-.3.2-.64.23-.97.1-1.15.1-2.3-.07-3.43-.1-.72-.52-1.18-1.25-1.31-.37-.07-.31-.2-.13-.41.31-.36.6-.58 1.2-.58h4.39c.7.13.85.43.94 1.11v4.77c0 .26.14 1.04.63 1.22.39.12.64-.18.87-.42 1.06-1.1 1.81-2.38 2.48-3.72.3-.58.56-1.2.8-1.8.19-.45.48-.68 1-.67h4.23c.13 0 .26.01.38.03.71.12.9.42.69 1.1-.35 1.06-1.03 1.95-1.69 2.85-.7.95-1.46 1.87-2.16 2.83-.64.87-.6 1.31.2 2.08z"/></defs><g><g transform="translate(-231 -188)"><use fill="#1b6eaf" xlink:href="#zpx6a"/></g></g></svg>