<svg xmlns="http://www.w3.org/2000/svg" xmlns:xlink="http://www.w3.org/1999/xlink" width="27" height="16" viewBox="0 0 27 16"><defs><path id="vuu7a" d="M254 146.85c.88.84 1.82 1.64 2.61 2.57.36.4.69.83.94 1.31.36.69.04 1.43-.59 1.48h-3.9c-1 .07-1.8-.32-2.47-.99-.54-.53-1.04-1.1-1.56-1.66a3.66 3.66 0 0 0-.7-.6c-.53-.34-.99-.24-1.3.3-.3.55-.37 1.16-.4 1.77-.05.9-.32 1.13-1.24 1.17-1.97.1-3.84-.2-5.57-1.16a12.2 12.2 0 0 1-3.75-3.43 45.78 45.78 0 0 1-4.94-8.57c-.3-.68-.08-1.04.69-1.06 1.27-.02 2.54-.02 3.8 0 .52 0 .87.3 1.06.77a22.87 22.87 0 0 0 2.59 4.67c.28.39.57.78.97 1.05.45.3.8.2 1.01-.29.14-.31.2-.65.23-.98.1-1.15.1-2.29-.07-3.43-.1-.71-.52-1.18-1.25-1.31-.37-.07-.31-.2-.13-.41.31-.36.6-.58 1.2-.58h4.39c.7.13.85.44.94 1.12v4.76c0 .27.14 1.05.63 1.22.39.12.64-.18.87-.42a14.75 14.75 0 0 0 2.48-3.71c.3-.59.56-1.2.8-1.8.19-.46.48-.68 1-.67h4.23c.13 0 .26 0 .38.02.71.12.9.42.69 1.1-.35 1.07-1.03 1.96-1.69 2.85-.7.95-1.46 1.87-2.16 2.83-.64.88-.6 1.32.2 2.08z"/></defs><g><g transform="translate(-231 -137)"><use fill="#2fdafd" xlink:href="#vuu7a"/></g></g></svg>