<svg xmlns="http://www.w3.org/2000/svg" xmlns:xlink="http://www.w3.org/1999/xlink" width="27" height="16" viewBox="0 0 27 16"><defs><path id="fcgza" d="M254 92.22c.88.85 1.82 1.64 2.61 2.57.36.41.69.84.94 1.32.36.68.04 1.43-.59 1.47h-3.9c-1 .08-1.8-.31-2.47-.98-.54-.54-1.04-1.1-1.56-1.66a3.66 3.66 0 0 0-.7-.61c-.53-.34-.99-.23-1.3.3-.3.56-.37 1.17-.4 1.78-.05.9-.32 1.13-1.24 1.17-1.97.09-3.84-.2-5.57-1.17a12.2 12.2 0 0 1-3.75-3.42 45.79 45.79 0 0 1-4.94-8.58c-.3-.68-.08-1.04.69-1.05 1.27-.03 2.54-.02 3.8 0 .52 0 .87.3 1.06.77a22.87 22.87 0 0 0 2.59 4.67c.28.38.57.77.97 1.04.45.3.8.2 1.01-.28.14-.32.2-.65.23-.98.1-1.15.1-2.3-.07-3.44-.1-.7-.52-1.17-1.25-1.3-.37-.07-.31-.2-.13-.42.31-.35.6-.58 1.2-.58h4.39c.7.14.85.44.94 1.12v4.77c0 .26.14 1.04.63 1.22.39.12.64-.18.87-.42a14.75 14.75 0 0 0 2.48-3.72c.3-.59.56-1.2.8-1.8.19-.46.48-.68 1-.67h4.23c.13 0 .26 0 .38.03.71.12.9.42.69 1.1-.35 1.06-1.03 1.95-1.69 2.84-.7.96-1.46 1.88-2.16 2.84-.64.87-.6 1.31.2 2.07z"/></defs><g><g transform="translate(-231 -82)"><use fill="#d1d6dc" xlink:href="#fcgza"/></g></g></svg>