<svg xmlns="http://www.w3.org/2000/svg" xmlns:xlink="http://www.w3.org/1999/xlink" width="22" height="16" viewBox="0 0 22 16"><defs><path id="mhe2a" d="M196 88.03v3.94c0 2.5-.38 3.93-1.28 4.82-.87.86-2.21 1.2-4.64 1.2h-10.16c-5 0-5.92-2.02-5.92-6.02v-3.94c0-2.06 0-3.56.77-4.57.79-1.04 2.28-1.46 5.15-1.46h10.16c2.8 0 4.27.4 5.06 1.37.8.98.86 2.48.86 4.66zm-7.5 1.86a.74.74 0 0 0-.38-.65l-4.62-2.48a.69.69 0 0 0-.69.03.74.74 0 0 0-.34.63v4.97c0 .25.13.49.34.62a.7.7 0 0 0 .7.03l4.61-2.5a.74.74 0 0 0 .38-.65z"/></defs><g><g transform="translate(-174 -82)"><use fill="#d1d6dc" xlink:href="#mhe2a"/></g></g></svg>