<svg xmlns="http://www.w3.org/2000/svg" xmlns:xlink="http://www.w3.org/1999/xlink" width="14" height="15" viewBox="0 0 14 15"><defs><path id="vpcxa" d="M1145.06 510.27v1.2c0 .18-.15.33-.32.33h-1.14a.33.33 0 0 1-.33-.34v-1.19c0-.18.15-.34.33-.34h1.14c.17 0 .32.16.32.34zm2.84 1.2c0 .18-.15.33-.33.33h-1.13a.33.33 0 0 1-.33-.34v-1.19c0-.18.15-.34.33-.34h1.13c.18 0 .33.16.33.34zm2.84-.01c0 .19-.15.34-.33.34h-1.14a.33.33 0 0 1-.32-.34v-1.19c0-.18.14-.34.32-.34h1.14c.18 0 .33.16.33.34zm-5.68 1.78v1.2c0 .18-.15.33-.32.33h-1.14a.33.33 0 0 1-.33-.34v-1.19c0-.19.15-.34.33-.34h1.14c.17 0 .32.15.32.34zm2.84 1.2c0 .18-.15.33-.33.33h-1.13a.33.33 0 0 1-.33-.34v-1.19c0-.19.15-.34.33-.34h1.13c.18 0 .33.15.33.34zm2.84-1.2v1.2c0 .18-.15.33-.33.33h-1.14a.33.33 0 0 1-.32-.34v-1.19c0-.19.14-.34.32-.34h1.14c.18 0 .33.15.33.34zm3.27-8.23v10.64c0 .74-.57 1.35-1.28 1.35h-11.45c-.7 0-1.28-.61-1.28-1.35V505c0-.73.56-1.32 1.24-1.34v1.81c0 .82.64 1.48 1.42 1.48h.9c.78 0 1.43-.66 1.43-1.48v-1.82h4.03v1.82c0 .82.65 1.48 1.43 1.48h.9c.78 0 1.42-.66 1.42-1.48v-1.81c.68.02 1.24.61 1.24 1.34zm-1.66 9.97v-5.49a.57.57 0 0 0-.56-.58h-9.6c-.3 0-.56.26-.56.58v5.5c0 .31.25.57.56.57h9.6c.31 0 .56-.26.56-.58zm-10.18-9.5v-2.97c0-.28.22-.51.49-.51h.89a.5.5 0 0 1 .48.5v2.98a.5.5 0 0 1-.48.51h-.89a.5.5 0 0 1-.49-.5zm7.78 0v-2.97c0-.28.22-.51.49-.51h.89a.5.5 0 0 1 .48.5v2.98a.5.5 0 0 1-.48.51h-.89a.5.5 0 0 1-.49-.5z"/></defs><g><g transform="translate(-1140 -502)"><use fill="#fff" xlink:href="#vpcxa"/></g></g></svg>