<svg xmlns="http://www.w3.org/2000/svg" xmlns:xlink="http://www.w3.org/1999/xlink" width="3" height="14" viewBox="0 0 3 14"><defs><path id="p19ua" d="M955.5 795.87c.83 0 1.5.7 1.5 1.57 0 .86-.67 1.56-1.5 1.56s-1.5-.7-1.5-1.56c0-.87.67-1.57 1.5-1.57zm0-5.43c.83 0 1.5.7 1.5 1.56 0 .86-.67 1.56-1.5 1.56s-1.5-.7-1.5-1.56c0-.86.67-1.56 1.5-1.56zm0-5.44c.83 0 1.5.7 1.5 1.56 0 .86-.67 1.56-1.5 1.56s-1.5-.7-1.5-1.56c0-.86.67-1.56 1.5-1.56z"/></defs><g><g transform="translate(-954 -785)"><use fill="#d1d6dc" xlink:href="#p19ua"/></g></g></svg>