<svg xmlns="http://www.w3.org/2000/svg" xmlns:xlink="http://www.w3.org/1999/xlink" width="14" height="14" viewBox="0 0 14 14"><defs><path id="xzlza" d="M2062.7 120.7v3.44c0 1.02-.83 1.86-1.85 1.86h-9a1.86 1.86 0 0 1-1.85-1.86v-9.02c0-1.02.83-1.85 1.85-1.85h3.43a.56.56 0 0 1 0 1.13h-3.43c-.4 0-.72.33-.72.72v9.02c0 .4.32.73.72.73h9c.4 0 .72-.33.72-.73v-3.44a.56.56 0 1 1 1.13 0zm1.29-5.58c0 .15-.06.3-.17.4l-6.43 6.45c-.1.1-.25.16-.4.16h-2.57a.56.56 0 0 1-.56-.56v-2.58c0-.15.06-.3.16-.4l6.43-6.44a.56.56 0 0 1 .8 0l2.57 2.57c.1.11.17.25.17.4zm-1.37 0l-1.77-1.77-5.86 5.87V121h1.77z"/></defs><g><g transform="translate(-2050 -112)"><use fill="#d3dce8" xlink:href="#xzlza"/></g></g></svg>