<svg xmlns="http://www.w3.org/2000/svg" xmlns:xlink="http://www.w3.org/1999/xlink" width="18" height="11" viewBox="0 0 18 11"><defs><path id="e8fta" d="M1793 792.5c0 .75-3.1 5.5-9 5.5s-9-4.75-9-5.5 3.1-5.5 9-5.5 9 4.75 9 5.5zm-5 0c0-2.34-1.8-4.23-4-4.23-2.21 0-4 1.9-4 4.23 0 2.34 1.79 4.23 4 4.23 2.2 0 4-1.9 4-4.23zm-2 0c0 1.17-.9 2.11-2 2.11s-2-.94-2-2.11.9-2.12 2-2.12c.6 0-.37 1.68 0 2.12.31.37 2-.54 2 0z"/><linearGradient id="e8ftb" x1="1778" x2="1790" y1="798" y2="787" gradientUnits="userSpaceOnUse"><stop offset="0" stop-color="#6076f6"/><stop offset="1" stop-color="#29b6fb"/></linearGradient></defs><g><g transform="translate(-1775 -787)"><use fill="#d1d6dc" xlink:href="#e8fta"/><use fill="url(#e8ftb)" xlink:href="#e8fta"/></g></g></svg>