<svg xmlns="http://www.w3.org/2000/svg" xmlns:xlink="http://www.w3.org/1999/xlink" width="14" height="14" viewBox="0 0 14 14"><defs><path id="1s2ga" d="M2098 259a7 7 0 1 1-14 0 7 7 0 0 1 14 0zm-5.42 3.37a2.07 2.07 0 0 1-.67.15c-.23 0-.4-.03-.49-.11-.1-.08-.14-.22-.14-.43l.04-.37.1-.44.45-1.59c.05-.14.08-.3.1-.48l.02-.36c0-.34-.12-.61-.36-.82-.23-.2-.57-.31-1-.31-.24 0-.5.04-.76.13-.27.08-.56.18-.85.3l-.12.5.31-.11c.13-.04.25-.05.36-.05.24 0 .4.04.48.12.09.08.13.22.13.42 0 .11-.01.24-.04.38l-.1.43-.45 1.6a4.96 4.96 0 0 0-.12.83c0 .33.12.6.37.81.24.22.58.32 1.01.32.29 0 .54-.03.75-.1l.86-.33zm.12-6.67c0-.27-.1-.51-.32-.7-.2-.2-.46-.3-.75-.3-.3 0-.55.1-.76.3a.94.94 0 0 0-.32.7c0 .28.11.51.32.7.21.2.47.3.76.3.3 0 .55-.1.75-.3.21-.19.32-.42.32-.7z"/></defs><g><g transform="translate(-2084 -252)"><use fill="#d1d6dc" xlink:href="#1s2ga"/></g></g></svg>