<svg xmlns="http://www.w3.org/2000/svg" xmlns:xlink="http://www.w3.org/1999/xlink" width="14" height="11" viewBox="0 0 14 11"><defs><path id="qiq5a" d="M2016 114.78v7.45c0 .98-.84 1.78-1.86 1.78h-10.29c-1.02 0-1.85-.8-1.85-1.78v-7.42-.07c.02-.96.84-1.74 1.85-1.74h10.3c1.01 0 1.85.8 1.85 1.78zm-1.14 7.45v-6.4l-5.54 3.74a.58.58 0 0 1-.65 0l-5.54-3.74v6.4c0 .38.32.7.72.7h10.3c.39 0 .71-.32.71-.7zm-.72-8.14h-10.29c-.3 0-.57.18-.67.44l5.82 3.93 5.82-3.93a.72.72 0 0 0-.68-.44z"/></defs><g><g transform="translate(-2002 -113)"><use fill="#d3dce8" xlink:href="#qiq5a"/></g></g></svg>