<svg xmlns="http://www.w3.org/2000/svg" xmlns:xlink="http://www.w3.org/1999/xlink" width="15" height="14" viewBox="0 0 15 14"><defs><path id="ho1sa" d="M1205.64 508.94h2.78c.02.76.3 1.73.64 2.6-.78.12-1.37.68-1.37 1.36v.48c-.2.13-.39.28-.52.46h-1.53zm10.93 0h2.78v4.9h-1.53c-.13-.18-.31-.33-.52-.46v-.48c0-.68-.6-1.24-1.37-1.36a8.4 8.4 0 0 0 .64-2.6zm2.78-5.08v4.68h-2.8a.69.69 0 0 0-.06-.2c-.1-.2-.26-.4-.54-.52-2.15-1.02-3.13-3.37-3.35-3.96h-.21c-.22.59-1.2 2.94-3.35 3.96a1.1 1.1 0 0 0-.54.51.64.64 0 0 0-.06.21h-2.8v-4.68h-.17c-.27 0-.48-.2-.48-.43 0-.24.21-.43.48-.43h14.06c.26 0 .47.2.47.43 0 .24-.21.43-.47.43zm-5.53 5.72l.32 1.67-1.64-.79-1.65.8.32-1.68-1.33-1.19 1.83-.24.83-1.52.82 1.52 1.83.24zm-1.36 3.76c-.39 0-.75.11-1.03.3v-.77c0-.45.46-.82 1.04-.82h.1c.58 0 1.04.37 1.04.82v.76c-.28-.18-.63-.3-1.02-.3zm-1.96-.47v1.21c0 .08-.01.15-.04.22-.16-.55-.8-.96-1.55-.96h-.13a2 2 0 0 0-.46.05v-.52c0-.45.47-.82 1.04-.82h.1c.58 0 1.04.37 1.04.82zm5.7.47h-.12c-.75 0-1.39.41-1.55.96a.66.66 0 0 1-.04-.22v-1.21c0-.45.46-.82 1.03-.82h.1c.58 0 1.05.37 1.05.82v.52c-.15-.03-.3-.05-.46-.05zm-2.38 1.37v1.37c0 .5-.56.92-1.23.92h-.13c-.68 0-1.23-.41-1.23-.92v-1.37c0-.5.55-.91 1.23-.91h.13c.67 0 1.23.4 1.23.91zm-3.68 0v1.37c0 .5-.55.92-1.23.92h-.13c-.68 0-1.23-.41-1.23-.92v-1.37c0-.5.55-.91 1.23-.91h.13c.68 0 1.23.4 1.23.91zm7.3 0v1.37c0 .5-.55.92-1.23.92h-.13c-.67 0-1.23-.41-1.23-.92v-1.37c0-.5.56-.91 1.23-.91h.13c.68 0 1.23.4 1.23.91z"/></defs><g><g transform="translate(-1205 -503)"><use fill="#fff" xlink:href="#ho1sa"/></g></g></svg>