<svg xmlns="http://www.w3.org/2000/svg" xmlns:xlink="http://www.w3.org/1999/xlink" width="35" height="35" viewBox="0 0 35 35"><defs><path id="d09ya" d="M1693.73 780a5 5 0 0 1 5-5H1723a5 5 0 0 1 5 5v25a5 5 0 0 1-5 5h-24.27a5 5 0 0 1-5-5z"/><path id="d09yc" d="M1709.57 786.97a.92.92 0 0 1 1.84 0v4.61h4.61a.92.92 0 0 1 0 1.84h-4.61v4.6a.92.92 0 0 1-1.84 0v-4.6h-4.61a.92.92 0 0 1 0-1.84h4.61z"/><linearGradient id="d09yb" x1="1693.73" x2="1727.73" y1="810" y2="775" gradientUnits="userSpaceOnUse"><stop offset="0" stop-color="#6076f6"/><stop offset="1" stop-color="#29b6fb"/></linearGradient></defs><g><g transform="translate(-1693 -775)"><use fill="#5c7af6" xlink:href="#d09ya"/><use fill="url(#d09yb)" xlink:href="#d09ya"/></g><g transform="translate(-1693 -775)"><use fill="#fff" xlink:href="#d09yc"/></g></g></svg>