<svg xmlns="http://www.w3.org/2000/svg" xmlns:xlink="http://www.w3.org/1999/xlink" width="30" height="30" viewBox="0 0 30 30"><defs><path id="9sg4a" d="M1486.5 874a13.5 13.5 0 1 1 0 27 13.5 13.5 0 0 1 0-27z"/><path id="9sg4d" d="M1489.19 882.43l-1.11.56.45.9a4.78 4.78 0 0 0-2.02 3.9v3.49a.97.97 0 0 1-1.93 0v-.46h.62v-1.25h-.62v-.84h.62v-1.25h-.62v-.83h.62v-1.25h-.62v-5.03c0-1.03-.83-1.87-1.86-1.87-1.03 0-1.86.84-1.86 1.87 0 .12-.1.21-.2.21h-.84l-.82 1.25h1.65c.8 0 1.45-.65 1.45-1.46 0-.34.28-.62.62-.62.34 0 .62.28.62.62v5.03h-.62v1.25h.62v.83h-.62v1.25h.62v.84h-.62v1.25h.62v1.54c0 2 1.62 3.64 3.61 3.64 2 0 3.61-1.64 3.61-3.64v-2.27c0-.47.25-.85.49-1.12l.34.68 1.1-.56z"/><mask id="9sg4c" width="2" height="2" x="-1" y="-1"><path fill="#fff" d="M1473 874h27v27h-27z"/><use xlink:href="#9sg4a"/></mask><filter id="9sg4b" width="51.5" height="51.9" x="1461" y="862" filterUnits="userSpaceOnUse"><feOffset dx=".5" dy=".9" in="SourceGraphic" result="FeOffset1195Out"/><feGaussianBlur in="FeOffset1195Out" result="FeGaussianBlur1196Out" stdDeviation="0.8 0.8"/></filter></defs><g><g transform="translate(-1472 -873)"><g filter="url(#9sg4b)"><use fill="none" stroke-opacity=".22" stroke-width="0" mask="url(&quot;#9sg4c&quot;)" xlink:href="#9sg4a"/><use fill-opacity=".22" xlink:href="#9sg4a"/></g><use fill="#fff" xlink:href="#9sg4a"/></g><g transform="translate(-1472 -873)"><use xlink:href="#9sg4d"/></g></g></svg>